<mxfile host="app.diagrams.net" modified="2024-06-30T17:03:29.488Z" agent="Mozilla/5.0 (Windows NT 10.0; Win64; x64) AppleWebKit/537.36 (KHTML, like Gecko) Chrome/126.0.0.0 Safari/537.36" etag="C00gAeV81bZczZVliueD" version="24.6.4" type="github">
  <diagram id="C5RBs43oDa-KdzZeNtuy" name="Page-1">
    <mxGraphModel dx="2300" dy="956" grid="1" gridSize="10" guides="1" tooltips="1" connect="1" arrows="1" fold="1" page="1" pageScale="1" pageWidth="827" pageHeight="1169" math="0" shadow="0">
      <root>
        <mxCell id="WIyWlLk6GJQsqaUBKTNV-0" />
        <mxCell id="WIyWlLk6GJQsqaUBKTNV-1" parent="WIyWlLk6GJQsqaUBKTNV-0" />
        <mxCell id="8vbVLgBmhzcoilXmWfOK-8" value="&lt;p style=&quot;margin:0px;margin-top:4px;text-align:center;&quot;&gt;&lt;font face=&quot;Poppins, sans-serif&quot;&gt;&lt;span style=&quot;font-size: 14.9444px;&quot;&gt;Customer Transactions&lt;/span&gt;&lt;/font&gt;&lt;/p&gt;" style="verticalAlign=top;align=left;overflow=fill;html=1;whiteSpace=wrap;" vertex="1" parent="WIyWlLk6GJQsqaUBKTNV-1">
          <mxGeometry x="150" y="50" width="640" height="550" as="geometry" />
        </mxCell>
        <mxCell id="8vbVLgBmhzcoilXmWfOK-9" value="Check Balance" style="ellipse;whiteSpace=wrap;html=1;" vertex="1" parent="WIyWlLk6GJQsqaUBKTNV-1">
          <mxGeometry x="440" y="100" width="110" height="70" as="geometry" />
        </mxCell>
        <mxCell id="8vbVLgBmhzcoilXmWfOK-14" style="rounded=0;orthogonalLoop=1;jettySize=auto;html=1;exitX=1;exitY=0.5;exitDx=0;exitDy=0;entryX=0;entryY=0.5;entryDx=0;entryDy=0;" edge="1" parent="WIyWlLk6GJQsqaUBKTNV-1" source="8vbVLgBmhzcoilXmWfOK-10" target="8vbVLgBmhzcoilXmWfOK-9">
          <mxGeometry relative="1" as="geometry" />
        </mxCell>
        <mxCell id="8vbVLgBmhzcoilXmWfOK-15" style="rounded=0;orthogonalLoop=1;jettySize=auto;html=1;exitX=1;exitY=0.5;exitDx=0;exitDy=0;entryX=0;entryY=0.5;entryDx=0;entryDy=0;" edge="1" parent="WIyWlLk6GJQsqaUBKTNV-1" source="8vbVLgBmhzcoilXmWfOK-10" target="8vbVLgBmhzcoilXmWfOK-12">
          <mxGeometry relative="1" as="geometry" />
        </mxCell>
        <mxCell id="8vbVLgBmhzcoilXmWfOK-16" style="rounded=0;orthogonalLoop=1;jettySize=auto;html=1;exitX=1;exitY=0.5;exitDx=0;exitDy=0;entryX=0;entryY=0.5;entryDx=0;entryDy=0;" edge="1" parent="WIyWlLk6GJQsqaUBKTNV-1" source="8vbVLgBmhzcoilXmWfOK-10" target="8vbVLgBmhzcoilXmWfOK-13">
          <mxGeometry relative="1" as="geometry" />
        </mxCell>
        <mxCell id="8vbVLgBmhzcoilXmWfOK-19" style="rounded=0;orthogonalLoop=1;jettySize=auto;html=1;exitX=1;exitY=0.5;exitDx=0;exitDy=0;entryX=0;entryY=0.5;entryDx=0;entryDy=0;" edge="1" parent="WIyWlLk6GJQsqaUBKTNV-1" source="8vbVLgBmhzcoilXmWfOK-10" target="8vbVLgBmhzcoilXmWfOK-18">
          <mxGeometry relative="1" as="geometry" />
        </mxCell>
        <mxCell id="8vbVLgBmhzcoilXmWfOK-10" value="Customer Auth." style="ellipse;whiteSpace=wrap;html=1;" vertex="1" parent="WIyWlLk6GJQsqaUBKTNV-1">
          <mxGeometry x="200" y="250" width="110" height="70" as="geometry" />
        </mxCell>
        <mxCell id="8vbVLgBmhzcoilXmWfOK-12" value="Deposit Funds" style="ellipse;whiteSpace=wrap;html=1;" vertex="1" parent="WIyWlLk6GJQsqaUBKTNV-1">
          <mxGeometry x="440" y="200" width="110" height="70" as="geometry" />
        </mxCell>
        <mxCell id="8vbVLgBmhzcoilXmWfOK-13" value="Withdraw Cash" style="ellipse;whiteSpace=wrap;html=1;" vertex="1" parent="WIyWlLk6GJQsqaUBKTNV-1">
          <mxGeometry x="440" y="300" width="110" height="70" as="geometry" />
        </mxCell>
        <mxCell id="8vbVLgBmhzcoilXmWfOK-21" style="edgeStyle=orthogonalEdgeStyle;rounded=0;orthogonalLoop=1;jettySize=auto;html=1;exitX=0.5;exitY=0.5;exitDx=0;exitDy=0;exitPerimeter=0;entryX=0;entryY=0.5;entryDx=0;entryDy=0;" edge="1" parent="WIyWlLk6GJQsqaUBKTNV-1" source="8vbVLgBmhzcoilXmWfOK-17" target="8vbVLgBmhzcoilXmWfOK-10">
          <mxGeometry relative="1" as="geometry" />
        </mxCell>
        <mxCell id="8vbVLgBmhzcoilXmWfOK-23" style="rounded=0;orthogonalLoop=1;jettySize=auto;html=1;exitX=0.5;exitY=0.5;exitDx=0;exitDy=0;exitPerimeter=0;entryX=0;entryY=0.5;entryDx=0;entryDy=0;" edge="1" parent="WIyWlLk6GJQsqaUBKTNV-1" source="8vbVLgBmhzcoilXmWfOK-17" target="8vbVLgBmhzcoilXmWfOK-22">
          <mxGeometry relative="1" as="geometry" />
        </mxCell>
        <mxCell id="8vbVLgBmhzcoilXmWfOK-17" value="&lt;b&gt;Customer&lt;/b&gt;" style="shape=umlActor;verticalLabelPosition=bottom;verticalAlign=top;html=1;" vertex="1" parent="WIyWlLk6GJQsqaUBKTNV-1">
          <mxGeometry x="-40" y="217.5" width="90" height="135" as="geometry" />
        </mxCell>
        <mxCell id="8vbVLgBmhzcoilXmWfOK-18" value="Transfer Funds" style="ellipse;whiteSpace=wrap;html=1;" vertex="1" parent="WIyWlLk6GJQsqaUBKTNV-1">
          <mxGeometry x="440" y="400" width="110" height="70" as="geometry" />
        </mxCell>
        <mxCell id="8vbVLgBmhzcoilXmWfOK-25" style="edgeStyle=orthogonalEdgeStyle;rounded=0;orthogonalLoop=1;jettySize=auto;html=1;exitX=1;exitY=0.5;exitDx=0;exitDy=0;dashed=1;" edge="1" parent="WIyWlLk6GJQsqaUBKTNV-1" source="8vbVLgBmhzcoilXmWfOK-22" target="8vbVLgBmhzcoilXmWfOK-24">
          <mxGeometry relative="1" as="geometry" />
        </mxCell>
        <mxCell id="8vbVLgBmhzcoilXmWfOK-26" value="&amp;lt;&amp;lt;Extends&amp;gt;&amp;gt;" style="edgeLabel;html=1;align=center;verticalAlign=middle;resizable=0;points=[];" vertex="1" connectable="0" parent="8vbVLgBmhzcoilXmWfOK-25">
          <mxGeometry x="-0.0512" y="1" relative="1" as="geometry">
            <mxPoint y="-8" as="offset" />
          </mxGeometry>
        </mxCell>
        <mxCell id="8vbVLgBmhzcoilXmWfOK-22" value="Menu" style="ellipse;whiteSpace=wrap;html=1;" vertex="1" parent="WIyWlLk6GJQsqaUBKTNV-1">
          <mxGeometry x="440" y="500" width="110" height="70" as="geometry" />
        </mxCell>
        <mxCell id="8vbVLgBmhzcoilXmWfOK-24" value="Help" style="ellipse;whiteSpace=wrap;html=1;" vertex="1" parent="WIyWlLk6GJQsqaUBKTNV-1">
          <mxGeometry x="640" y="505" width="110" height="60" as="geometry" />
        </mxCell>
        <mxCell id="8vbVLgBmhzcoilXmWfOK-28" value="&lt;p style=&quot;margin:0px;margin-top:4px;text-align:center;&quot;&gt;&lt;font face=&quot;Poppins, sans-serif&quot;&gt;&lt;span style=&quot;font-size: 14.9444px;&quot;&gt;Gcash App Servicing&lt;/span&gt;&lt;/font&gt;&lt;/p&gt;" style="verticalAlign=top;align=left;overflow=fill;html=1;whiteSpace=wrap;" vertex="1" parent="WIyWlLk6GJQsqaUBKTNV-1">
          <mxGeometry x="150" y="680" width="580" height="550" as="geometry" />
        </mxCell>
        <mxCell id="8vbVLgBmhzcoilXmWfOK-29" value="Software Updates" style="ellipse;whiteSpace=wrap;html=1;" vertex="1" parent="WIyWlLk6GJQsqaUBKTNV-1">
          <mxGeometry x="400" y="750" width="110" height="70" as="geometry" />
        </mxCell>
        <mxCell id="8vbVLgBmhzcoilXmWfOK-30" style="rounded=0;orthogonalLoop=1;jettySize=auto;html=1;exitX=1;exitY=0.5;exitDx=0;exitDy=0;entryX=0;entryY=0.5;entryDx=0;entryDy=0;" edge="1" parent="WIyWlLk6GJQsqaUBKTNV-1" source="8vbVLgBmhzcoilXmWfOK-34" target="8vbVLgBmhzcoilXmWfOK-29">
          <mxGeometry relative="1" as="geometry" />
        </mxCell>
        <mxCell id="8vbVLgBmhzcoilXmWfOK-31" style="rounded=0;orthogonalLoop=1;jettySize=auto;html=1;exitX=1;exitY=0.5;exitDx=0;exitDy=0;entryX=0;entryY=0.5;entryDx=0;entryDy=0;" edge="1" parent="WIyWlLk6GJQsqaUBKTNV-1" source="8vbVLgBmhzcoilXmWfOK-34" target="8vbVLgBmhzcoilXmWfOK-35">
          <mxGeometry relative="1" as="geometry" />
        </mxCell>
        <mxCell id="8vbVLgBmhzcoilXmWfOK-34" value="Maintenance" style="ellipse;whiteSpace=wrap;html=1;" vertex="1" parent="WIyWlLk6GJQsqaUBKTNV-1">
          <mxGeometry x="200" y="880" width="110" height="70" as="geometry" />
        </mxCell>
        <mxCell id="8vbVLgBmhzcoilXmWfOK-46" style="edgeStyle=orthogonalEdgeStyle;rounded=0;orthogonalLoop=1;jettySize=auto;html=1;exitX=1;exitY=0.5;exitDx=0;exitDy=0;entryX=0;entryY=0.5;entryDx=0;entryDy=0;" edge="1" parent="WIyWlLk6GJQsqaUBKTNV-1" source="8vbVLgBmhzcoilXmWfOK-35" target="8vbVLgBmhzcoilXmWfOK-45">
          <mxGeometry relative="1" as="geometry" />
        </mxCell>
        <mxCell id="8vbVLgBmhzcoilXmWfOK-35" value="Diagnostics" style="ellipse;whiteSpace=wrap;html=1;" vertex="1" parent="WIyWlLk6GJQsqaUBKTNV-1">
          <mxGeometry x="400" y="1000" width="110" height="70" as="geometry" />
        </mxCell>
        <mxCell id="8vbVLgBmhzcoilXmWfOK-37" style="edgeStyle=orthogonalEdgeStyle;rounded=0;orthogonalLoop=1;jettySize=auto;html=1;exitX=0.5;exitY=0.5;exitDx=0;exitDy=0;exitPerimeter=0;entryX=0;entryY=0.5;entryDx=0;entryDy=0;" edge="1" parent="WIyWlLk6GJQsqaUBKTNV-1" source="8vbVLgBmhzcoilXmWfOK-39" target="8vbVLgBmhzcoilXmWfOK-34">
          <mxGeometry relative="1" as="geometry" />
        </mxCell>
        <mxCell id="8vbVLgBmhzcoilXmWfOK-39" value="&lt;b&gt;Software Engineer&lt;/b&gt;" style="shape=umlActor;verticalLabelPosition=bottom;verticalAlign=top;html=1;" vertex="1" parent="WIyWlLk6GJQsqaUBKTNV-1">
          <mxGeometry x="-40" y="847.5" width="90" height="135" as="geometry" />
        </mxCell>
        <mxCell id="8vbVLgBmhzcoilXmWfOK-45" value="Bug Fixes" style="ellipse;whiteSpace=wrap;html=1;" vertex="1" parent="WIyWlLk6GJQsqaUBKTNV-1">
          <mxGeometry x="600" y="1000" width="110" height="70" as="geometry" />
        </mxCell>
      </root>
    </mxGraphModel>
  </diagram>
</mxfile>
